<svg xmlns="http://www.w3.org/2000/svg" width="128" height="128" viewBox="0 0 128 128">
  <g id="Group_751" data-name="Group 751" transform="translate(1795.42 -2007.58)">
    <rect id="Rectangle_407" data-name="Rectangle 407" width="128" height="128" transform="translate(-1795.42 2007.58)" fill="none"/>
    <path id="heat-resistant" d="M57.645,0c21.574,13.669,41.069,20.146,57.79,18.625,2.918,59.084-18.894,93.975-57.563,108.534C20.529,113.521-1.552,80.13.083,17.715,19.743,18.749,38.979,14.5,57.645,0ZM39.889,47.288c1.086,8.081,2.763,14.207,5.639,16.473a47.6,47.6,0,0,1,.828-8.081c1.645-8.64,4.077-9.106,6.633-15.521a17.166,17.166,0,0,0,1.035-10.13c9.157,1.656,17.663,16.1,19.8,34.467a20.146,20.146,0,0,0,3.9-10.885,26.479,26.479,0,0,1,6.809,15.149c1.511,10.8-1.656,19.008-10.037,21.73,1.863-4.48,1.428-9.147-.528-13.71a16.37,16.37,0,0,0-3.27-5.029c-.59,4.439-1.521,7.792-3.1,9.044.424-8.123-6.415-12.417-4.687-18.5-5.018.9-9.685,8.837-10.865,18.915a10.989,10.989,0,0,1-2.142-5.981c-3.342,3.663-5.246,12.21-2.98,16.866-6.446-.776-10.772-5.732-13.5-11.8C29.5,71.6,30.2,65.137,33.908,56.5a30.008,30.008,0,0,1,5.981-9.178ZM57.687,9.84c17.849,11.341,35.057,17.715,48.891,16.442C109,75.288,89.9,105.233,57.832,117.34,26.9,106,7.574,77.305,8.94,25.548,26.9,26.489,43.376,20.964,57.687,9.84Z" transform="translate(-1788.64 2008)" fill="#fff"/>
  </g>
</svg>
