<svg xmlns="http://www.w3.org/2000/svg" width="409.021" height="21.8" viewBox="0 0 409.021 21.8">
  <g id="Group_839" data-name="Group 839" transform="translate(-752.979 -299.1)">
    <path id="Polygon_61" data-name="Polygon 61" d="M15.76,0a1,1,0,0,1,.875.516l4.9,8.857a1,1,0,0,1,0,.968l-4.9,8.857a1,1,0,0,1-.875.516H6.04a1,1,0,0,1-.875-.516l-4.9-8.857a1,1,0,0,1,0-.968L5.165.516A1,1,0,0,1,6.04,0Z" transform="translate(967.346 299.1) rotate(90)" fill="#fff"/>
    <line id="Line_9" data-name="Line 9" x1="184.521" transform="translate(977.479 310.5)" fill="none" stroke="#fff" stroke-width="1"/>
    <line id="Line_10" data-name="Line 10" x1="184.521" transform="translate(752.979 310.5)" fill="none" stroke="#fff" stroke-width="1"/>
  </g>
</svg>
