<svg xmlns="http://www.w3.org/2000/svg" width="124.13" height="124.13" viewBox="0 0 124.13 124.13">
  <g id="Group_754" data-name="Group 754" transform="translate(1677 -2008)">
    <rect id="Rectangle_408" data-name="Rectangle 408" width="124.13" height="124.13" transform="translate(-1677 2008)" fill="none"/>
    <g id="bb2ce0d37d0af453def31180ae447f60" transform="translate(-1677 2008)">
      <g id="Group_747" data-name="Group 747" transform="translate(0 0)">
        <path id="Path_1241" data-name="Path 1241" d="M378.63-502.045c0,.1.51,1.408,1.117,2.938a171.676,171.676,0,0,1,7.478,24.6c2.744,12.334,4.176,24.255,4.9,40.886.146,3.618.17,3.715.68,3.594,1.045-.219,8.449-.85,13.378-1.117a196.575,196.575,0,0,1,29.62,1,14.631,14.631,0,0,0,1.749.17c.1-.1-.656-5.439-1.287-8.91-4.2-23.917-14.932-42.393-30.81-53.027A59.949,59.949,0,0,0,389.92-499.5C385.72-500.88,378.63-502.482,378.63-502.045Z" transform="translate(-331.95 502.119)" fill="#fff"/>
        <path id="Path_1242" data-name="Path 1242" d="M126.236-440.958c-2.283,9.007-6.532,20.03-16.049,41.686-7.041,16.024-10.221,23.7-12.334,29.791l-.874,2.452,2.84-.947c5.365-1.821,13.038-4.055,18.987-5.56,5.9-1.482,15.539-3.5,18.112-3.788a3.434,3.434,0,0,0,1.432-.365c.194-.315-.339-11.338-.85-17.384a185.973,185.973,0,0,0-6.58-36.88c-.728-2.525-3.544-10.9-3.836-11.436C127.013-443.557,126.624-442.464,126.236-440.958Z" transform="translate(-85.965 450.84)" fill="#fff"/>
        <path id="Path_1243" data-name="Path 1243" d="M124.9,116.41c-52.225,3.107-94.081,9.614-112.048,17.408-2.84,1.238-2.914,1.287-2.84,1.991.194,1.821,4.274,11.411,5.365,12.6a5.3,5.3,0,0,0,3.981,1.6c1.506,0,2.282-.243,6.968-2.186a29.1,29.1,0,0,1,9.954-2.6,8,8,0,0,1,3.909.389,8.117,8.117,0,0,1,4.127,3.568l.728,1.287,1.019-.461c.558-.243,1.991-.874,3.181-1.432,5.074-2.355,8.594-3.277,12.527-3.3,2.427,0,2.938.072,3.933.558a8.817,8.817,0,0,1,3.618,3.5c.291.583.558,1.069.583,1.117a21.03,21.03,0,0,0,2.21-.946c6.385-2.986,9.978-4.079,13.936-4.274,2.21-.1,2.744-.048,3.909.389a8.117,8.117,0,0,1,4.127,3.568l.728,1.287,1.384-.632c6.653-3.01,9.348-3.981,12.649-4.442a21.59,21.59,0,0,1,3.933-.17l1.894.122,1.991-3.666A146.541,146.541,0,0,1,133.1,116.991l.826-.971-1.8.024C131.165,116.069,127.912,116.239,124.9,116.41Z" transform="translate(-9.997 -37.745)" fill="#fff"/>
        <path id="Path_1244" data-name="Path 1244" d="M36.531,384.761c-2.355.437-4.2,1.093-8.911,3.181-2.258,1-4.54,1.967-5.074,2.16-2.088.752-3.4.267-4.346-1.6-1.117-2.186-4.346-2.234-5.244-.1-.461,1.117-.437,1.48.243,2.962a8.73,8.73,0,0,0,6.847,4.832c2.015.195,4.37-.485,9.007-2.6,3.666-1.675,7.5-3.132,8.207-3.132.194,0,.582.485.874,1.093a10.914,10.914,0,0,0,4.274,4.055,6.839,6.839,0,0,0,3.229.51c2.379,0,3.642-.413,8.862-2.792a42.486,42.486,0,0,1,7.7-2.864c.194,0,.558.461.826,1.019a9.525,9.525,0,0,0,4.055,3.957c3.011,1.384,5.536,1,11.751-1.845,3.568-1.627,7.5-3.132,8.157-3.132.17,0,.582.534.947,1.165a11.255,11.255,0,0,0,4.272,4.006,6.729,6.729,0,0,0,3.083.51c2.306,0,3.982-.534,8.862-2.768a47.646,47.646,0,0,1,7.745-2.914c.146,0,.485.437.752.971a8.682,8.682,0,0,0,8.231,4.783c1.8-.194,3.957-.971,8.522-3.011,2.064-.922,4.272-1.869,4.9-2.112a2.856,2.856,0,0,0,1.8-3.983c-1-1.942-2.719-1.966-6.943-.1-1.53.68-3.812,1.676-5.05,2.234-2.744,1.19-4.055,1.432-5.074.874a4.411,4.411,0,0,1-1.773-3.035,3,3,0,0,0-1.456-2.331c-1.967-1.021-6.7.072-13.353,3.083-6.069,2.768-7.356,3.083-8.546,2.136a4.158,4.158,0,0,1-1.408-2.792,2.929,2.929,0,0,0-1.675-2.451,4.269,4.269,0,0,0-2.525-.243c-3.351.315-5.463,1.02-13.4,4.516a18.373,18.373,0,0,1-4.055,1.408,1.8,1.8,0,0,1-1.991-.728,4.255,4.255,0,0,1-1-1.554c-.7-3.594-1.893-4.224-6.337-3.375-2.719.51-4.54,1.165-8.837,3.108-4.274,1.918-6.119,2.6-7.017,2.6a3.42,3.42,0,0,1-2.938-3.277,2.961,2.961,0,0,0-1.6-2.427C40.2,384.324,38.863,384.324,36.531,384.761Z" transform="translate(-12.309 -272.131)" fill="#fff"/>
      </g>
    </g>
  </g>
</svg>
