<svg xmlns="http://www.w3.org/2000/svg" width="129.512" height="124.13" viewBox="0 0 129.512 124.13">
  <g id="heart-4" transform="translate(0 -0.09)">
    <g id="Page-1" transform="translate(0 0.09)">
      <g id="_010---Life-Insurance" data-name="010---Life-Insurance">
        <path id="Shape" d="M61.028.09,32,12.617V43.454a18.271,18.271,0,0,0,7.7,14.827l3.3,2.367a.489.489,0,0,1,.112.067l17.908,12.75L82.353,58.281a18.271,18.271,0,0,0,7.7-14.827V12.617ZM85.591,43.454a13.755,13.755,0,0,1-5.828,11.187L62.324,67.056a2.188,2.188,0,0,1-2.59,0L42.294,54.641a13.781,13.781,0,0,1-5.828-11.187V17.038a2.258,2.258,0,0,1,1.34-2.054l22.33-9.646a2.258,2.258,0,0,1,1.786,0l22.33,9.646a2.258,2.258,0,0,1,1.34,2.054Z" transform="translate(39.455 -0.09)" fill="#fff"/>
        <path id="Shape-2" data-name="Shape" d="M13.615,52.8c1.3,1.228,2.568,2.412,3.729,3.617,7.011,7.1,27.867,25.121,33.561,30.011,5.694-4.89,26.55-22.91,33.561-30.011C85.628,55.213,86.9,54.03,88.2,52.8A65.622,65.622,0,0,0,98.557,41.257a32.735,32.735,0,0,0,3.215-6.118l-6.118,4.377a4.02,4.02,0,0,1-4.645,0L79.175,31.1,81.3,47.018l3.416-5.672a2.233,2.233,0,0,1,3.841,2.278l-6.7,11.165a2.233,2.233,0,0,1-1.92,1.094,3.027,3.027,0,0,1-.447-.045,2.233,2.233,0,0,1-1.764-1.9l-3.081-23.2L70.913,43.133a2.251,2.251,0,0,1-2.144,1.585H61.222l-6.1,12.17a2.232,2.232,0,0,1-1.987,1.228,2.159,2.159,0,0,1-.38-.022,2.251,2.251,0,0,1-1.831-1.943L47.78,30.941,44.118,43.133a2.251,2.251,0,0,1-2.144,1.585H34.159L28.13,52.757a2.219,2.219,0,0,1-2.322.826,2.249,2.249,0,0,1-1.675-1.831l-3.059-19.9L17.3,43.2a2.264,2.264,0,0,1-2.121,1.518H5.8A86.716,86.716,0,0,0,13.615,52.8Z" transform="translate(7.151 37.7)" fill="#fff"/>
        <path id="Shape-3" data-name="Shape" d="M36,13.114V38.078a9.3,9.3,0,0,0,3.952,7.547L56.1,57.126l16.144-11.5a9.3,9.3,0,0,0,3.952-7.547V13.114L56.1,4.45Zm34.879,4.22a2.206,2.206,0,0,1,.357,3.126L53.372,42.79a2.233,2.233,0,0,1-1.742.849,2.3,2.3,0,0,1-1.34-.447l-8.932-6.7a2.262,2.262,0,0,1-.893-1.786,2.3,2.3,0,0,1,.447-1.34,2.233,2.233,0,0,1,3.126-.447l7.19,5.4L67.753,17.691a2.193,2.193,0,0,1,3.126-.357Z" transform="translate(44.387 5.286)" fill="#fff"/>
        <path id="Shape-4" data-name="Shape" d="M24.447,43.547a2.3,2.3,0,0,1,2.3-1.518,2.253,2.253,0,0,1,2.032,1.9l3.662,23.781,3.506-4.689a2.265,2.265,0,0,1,1.786-.893h7.279L51.22,41.381A2.28,2.28,0,0,1,53.542,39.8a2.256,2.256,0,0,1,2.032,1.965l3.55,28.4,3.416-6.811a2.206,2.206,0,0,1,1.987-1.228h7.279L76.184,47.5,74.108,46a22.7,22.7,0,0,1-9.579-18.467V19.766a30.389,30.389,0,0,0-6.945,8.753A2.206,2.206,0,0,1,55.6,29.747a2.282,2.282,0,0,1-2.01-1.228C52.805,26.911,45.414,13,28.712,13S2.005,23.9,2.005,42.162A37.087,37.087,0,0,0,7.3,62.125H18.261Z" transform="translate(2.46 15.828)" fill="#fff"/>
        <path id="Shape-5" data-name="Shape" d="M10.383,36c-.223-.335-.424-.67-.625-1H2.233a2.233,2.233,0,1,0,0,4.466H12.951A36.566,36.566,0,0,1,10.383,36Z" transform="translate(0 42.953)" fill="#fff"/>
      </g>
    </g>
  </g>
</svg>
