<svg xmlns="http://www.w3.org/2000/svg" width="127.829" height="127.839" viewBox="0 0 127.829 127.839">
  <g id="insurance-2" transform="translate(25.997 -1.998)">
    <g id="Solid" transform="translate(-25.997 1.998)">
      <path id="Path_1171" data-name="Path 1171" d="M65.712,110.1l-2.9,3.121,3.835,3.569c-1.662.158-3.322.266-4.99.266a55.4,55.4,0,1,1,54.792-63.607l4.214-.622a59.657,59.657,0,1,0-59.007,68.49c1.845,0,3.686-.113,5.518-.286l-3.946,4.231,3.115,2.9,7.265-7.789a2.131,2.131,0,0,0-.1-3.011Z" transform="translate(-2.003 -1.998)" fill="#fff"/>
      <path id="Path_1172" data-name="Path 1172" d="M38.02,21.367a94.172,94.172,0,0,0-15.577,1.589A94.93,94.93,0,0,0,21.022,37.63h17Z" transform="translate(19.5 19.9)" fill="#fff"/>
      <path id="Path_1173" data-name="Path 1173" d="M38.02,31h-17a93.919,93.919,0,0,0,1.722,16.205A94.47,94.47,0,0,0,38.02,48.731Z" transform="translate(19.5 30.791)" fill="#fff"/>
      <path id="Path_1174" data-name="Path 1174" d="M36.551,62.3V42.011a100.242,100.242,0,0,1-14.23-1.278C25.366,52.347,30.586,60.675,36.551,62.3Z" transform="translate(20.968 41.795)" fill="#fff"/>
      <path id="Path_1175" data-name="Path 1175" d="M36.765,9.146C30.535,10.85,25.1,19.82,22.132,32.235A100.1,100.1,0,0,1,36.765,30.9Z" transform="translate(20.754 6.083)" fill="#fff"/>
      <path id="Path_1176" data-name="Path 1176" d="M31,9.146V30.9a100.1,100.1,0,0,1,14.633,1.336C42.661,19.82,37.23,10.84,31,9.146Z" transform="translate(30.781 6.083)" fill="#fff"/>
      <path id="Path_1177" data-name="Path 1177" d="M35.22,9.681c4.53,5.009,8.139,13.012,10.248,22.855C55.056,34.7,62.8,38.314,67.637,42.807A44.742,44.742,0,0,0,35.22,9.681Z" transform="translate(35.552 6.688)" fill="#fff"/>
      <path id="Path_1178" data-name="Path 1178" d="M30.023,36.252A100.437,100.437,0,0,1,31.2,22.586c-11.458,2.893-19.815,7.9-21.93,13.666Z" transform="translate(6.216 21.278)" fill="#fff"/>
      <path id="Path_1179" data-name="Path 1179" d="M41.69,66.861c-4.282-4.747-7.734-12.183-9.875-21.306-9.4-2.086-17.092-5.54-22.015-9.873A44.757,44.757,0,0,0,41.69,66.861Z" transform="translate(6.811 36.084)" fill="#fff"/>
      <path id="Path_1180" data-name="Path 1180" d="M41.982,9.681A44.742,44.742,0,0,0,9.565,42.807c4.834-4.493,12.59-8.1,22.169-10.272C33.843,22.693,37.452,14.69,41.982,9.681Z" transform="translate(6.546 6.688)" fill="#fff"/>
      <path id="Path_1181" data-name="Path 1181" d="M31.675,46.2A99.286,99.286,0,0,1,30.241,31H9.08C10.224,37.426,19.115,43.076,31.675,46.2Z" transform="translate(5.998 30.791)" fill="#fff"/>
      <path id="Path_1182" data-name="Path 1182" d="M55.578,28.789a50.866,50.866,0,0,0-15.144-6.2A100.141,100.141,0,0,1,41.5,34.2a71.922,71.922,0,0,0,14.079-5.416Z" transform="translate(41.447 21.284)" fill="#fff"/>
      <path id="Path_1183" data-name="Path 1183" d="M31,61.794a14.7,14.7,0,0,0,7.647-6.219A47.613,47.613,0,0,1,37.392,44.73V41.178c-2.088.168-4.214.288-6.392.33Z" transform="translate(30.781 42.298)" fill="#fff"/>
      <path id="Path_1184" data-name="Path 1184" d="M37.392,31H31V48.731c2.173-.047,4.3-.177,6.392-.354Z" transform="translate(30.781 30.791)" fill="#fff"/>
      <path id="Path_1185" data-name="Path 1185" d="M47.955,36.59a94,94,0,0,0-1.378-13.636A94.173,94.173,0,0,0,31,21.367V37.63H41.374Q44.7,37.257,47.955,36.59Z" transform="translate(30.781 19.9)" fill="#fff"/>
      <path id="Path_1186" data-name="Path 1186" d="M63.7,27A76.863,76.863,0,0,1,36,35.522V60.757a44.48,44.48,0,0,0,27.7,40.814A44.48,44.48,0,0,0,91.4,60.757V35.522A76.851,76.851,0,0,1,63.7,27ZM58.812,75.379a2.131,2.131,0,0,1-3.013,0L45.147,64.726l3.013-3.013,9.147,9.147,21.93-21.93,3.013,3.013Z" transform="translate(36.434 26.269)" fill="#fff"/>
    </g>
  </g>
</svg>
