<svg xmlns="http://www.w3.org/2000/svg" width="129.059" height="116.153" viewBox="0 0 129.059 116.153">
  <g id="miscellaneous" transform="translate(-2 9)">
    <g id="Solid" transform="translate(2 -9)">
      <path id="Path_1161" data-name="Path 1161" d="M56.416,37.265,39.208,5,22,37.265Z" transform="translate(21.02 -5)" fill="#fff"/>
      <path id="Path_1162" data-name="Path 1162" d="M19.208,5,2,37.265H36.416Z" transform="translate(-2 -5)" fill="#fff"/>
      <path id="Path_1163" data-name="Path 1163" d="M76.416,37.265,59.208,5,42,37.265Z" transform="translate(44.039 -5)" fill="#fff"/>
      <path id="Path_1164" data-name="Path 1164" d="M66.416,5H32L49.208,37.265Z" transform="translate(32.529 -5)" fill="#fff"/>
      <path id="Path_1165" data-name="Path 1165" d="M46.416,5H12L29.208,37.265Z" transform="translate(9.51 -5)" fill="#fff"/>
      <path id="Path_1166" data-name="Path 1166" d="M2,22,55.269,88.586,39.027,22Z" transform="translate(-2 14.567)" fill="#fff"/>
      <path id="Path_1167" data-name="Path 1167" d="M48.648,32.946l3.844-.413c1.291-.138,2.558-.314,3.824-.514L58.816,22H21.273L40.045,97.284l8.645-34.672c-.009-.353-.041-29.666-.041-29.666Z" transform="translate(20.183 14.567)" fill="#fff"/>
      <path id="Path_1168" data-name="Path 1168" d="M39.752,31.112A74.209,74.209,0,0,0,57.67,24.631l1.975-1.02,1.975,1.02a73.856,73.856,0,0,0,11.486,4.732L79,22H41.976Z" transform="translate(41.452 14.567)" fill="#fff"/>
      <path id="Path_1169" data-name="Path 1169" d="M33.235,60.605l6.033-7.541a46.09,46.09,0,0,1-2.547-6.754Z" transform="translate(33.951 42.547)" fill="#fff"/>
      <path id="Path_1170" data-name="Path 1170" d="M63.963,25A79.311,79.311,0,0,1,36,33.359V58.108A43.652,43.652,0,0,0,63.963,98.133,43.652,43.652,0,0,0,91.925,58.108V33.359A79.3,79.3,0,0,1,63.963,25ZM59.031,73.842a2.151,2.151,0,0,1-3.041,0L45.234,63.087l3.041-3.041L57.51,69.28,79.65,47.14l3.041,3.041Z" transform="translate(37.133 18.02)" fill="#fff"/>
    </g>
  </g>
</svg>
