<svg xmlns="http://www.w3.org/2000/svg" width="128.049" height="123.072" viewBox="0 0 128.049 123.072">
  <g id="Solid" transform="translate(-2.005 -3)">
    <path id="Path_1187" data-name="Path 1187" d="M22.395,81.579c.378-.241.792-.482,1.253-.724a56.427,56.427,0,0,1-2.975-17.981V29.041a2.134,2.134,0,0,1,1.857-2.115A95.753,95.753,0,0,0,55.938,16.04a2.134,2.134,0,0,1,2.041,0A95.779,95.779,0,0,0,91.39,26.925a2.134,2.134,0,0,1,1.855,2.115V62.875a56.671,56.671,0,0,1-8.09,29.1l1.669.911,9.3,1.434a67.237,67.237,0,0,0,7.793-31.445V17.068A85.525,85.525,0,0,1,57.975,3.64L56.959,3l-1.016.64A85.52,85.52,0,0,1,10,17.068V62.875a67.3,67.3,0,0,0,4.194,23.394Z" transform="translate(9.07 0)" fill="#fff"/>
    <path id="Path_1188" data-name="Path 1188" d="M49.017,11.119A99.986,99.986,0,0,1,17,21.678V53.664a52.22,52.22,0,0,0,2.694,16.461A63.821,63.821,0,0,1,36.274,68.5a54.229,54.229,0,0,1,23.2,4.591l13.983,7.631a52.434,52.434,0,0,0,7.575-27.055V21.678A100.02,100.02,0,0,1,49.017,11.119Zm0,44.2-5.52,5.52a4.269,4.269,0,0,1-6.036,0L25.538,48.919l6.4-6.4,8.538,8.538,8.538-8.538L66.093,25.439l6.4,6.4Z" transform="translate(17.011 9.211)" fill="#fff"/>
    <circle id="Ellipse_26" data-name="Ellipse 26" cx="8.026" cy="8.026" r="8.026" transform="translate(19.842 110.019)" fill="#fff"/>
    <path id="Path_1189" data-name="Path 1189" d="M129.551,68.334l-1.686-5.486a2.155,2.155,0,0,0-.149-.32,7.257,7.257,0,0,0-5.849-3.287L94.716,55.057a1.02,1.02,0,0,1-.384-.128L74.46,44.086a50.184,50.184,0,0,0-21.174-4.077c-14.429,0-18.122,2.305-19.7,3.308L21.717,50.105a4.316,4.316,0,0,1-2.177.576H12.752c-4.376,0-7.471,2.967-8.474,8.026L2.122,67.331a6.66,6.66,0,0,0,1.537,5.635,9.257,9.257,0,0,0,6.958,3.33H14.8a12.807,12.807,0,0,1,25.614,0H89.508a12.807,12.807,0,0,1,25.614,0h9.306a5.635,5.635,0,0,0,5.123-7.962Zm-78.4-14.685c-8.175-.448-16.414-1.067-23.693-1.921l8.389-4.8c1.089-.683,3.906-2.433,15.3-2.625Zm4.269.235V44.321a43.882,43.882,0,0,1,16.991,3.522l12.828,7C77.64,54.716,66.776,54.46,55.42,53.883Z" transform="translate(0 41.967)" fill="#fff"/>
    <circle id="Ellipse_27" data-name="Ellipse 27" cx="8.026" cy="8.026" r="8.026" transform="translate(94.755 110.019)" fill="#fff"/>
  </g>
</svg>
